<svg version="1.1" id="Layer_1" xmlns="http://www.w3.org/2000/svg" xmlns:xlink="http://www.w3.org/1999/xlink" x="0px" y="0px"
	 width="100%" viewBox="0 0 447 447" enable-background="new 0 0 447 447" xml:space="preserve">
<path fill="#010101" opacity="1.000000" stroke="none" 
	d="
M448.000000,207.000000 
	C448.000000,218.687561 448.000000,230.375122 447.618988,242.688782 
	C443.890656,277.367706 434.352753,309.469360 416.303101,338.695923 
	C379.601318,398.124542 326.928711,433.976562 257.798340,445.259338 
	C252.198944,446.173218 246.599442,447.086456 241.000000,448.000000 
	C229.645767,448.000000 218.291550,448.000000 206.311218,447.618988 
	C167.603317,443.567291 132.248398,431.900421 100.604919,410.216309 
	C48.605644,374.583191 16.242527,325.906158 4.723950,263.690430 
	C3.448262,256.799988 2.239697,249.897110 1.000000,243.000000 
	C1.000000,230.979111 1.000000,218.958206 1.381011,206.311218 
	C5.428917,167.601181 17.103050,132.246414 38.786034,100.603821 
	C74.416649,48.607052 123.089516,16.233654 185.308197,4.732270 
	C192.522263,3.398718 199.768616,2.239853 207.000000,1.000000 
	C218.020889,1.000000 229.041794,1.000000 240.698761,1.388034 
	C243.325058,1.883857 245.327530,1.885951 247.303665,2.115098 
	C283.898132,6.358490 317.938141,17.879910 348.410706,38.785622 
	C400.386108,74.443382 432.764923,123.096886 444.267975,185.309891 
	C445.601715,192.523346 446.760254,199.769180 448.000000,207.000000 
M202.231094,191.581680 
	C203.469864,186.308441 205.635361,181.059921 205.776779,175.757416 
	C206.233719,158.624008 206.017303,141.470398 205.926773,124.325279 
	C205.828476,105.712975 194.245743,94.139717 175.693100,94.067383 
	C158.547775,94.000534 141.401764,93.998604 124.256447,94.067970 
	C105.756607,94.142815 94.139610,105.784470 94.067184,124.313652 
	C94.000824,141.292526 94.018608,158.271957 94.061874,175.250961 
	C94.110748,194.427399 105.604797,205.876877 124.881813,205.935944 
	C141.694336,205.987473 158.507935,205.846741 175.319504,205.982559 
	C186.677765,206.074310 195.694199,201.961212 202.231094,191.581680 
M314.497040,205.947556 
	C317.994873,205.946838 321.493225,205.983688 324.990479,205.939133 
	C343.289215,205.706039 354.849518,194.140289 354.930511,175.847626 
	C355.006470,158.691971 354.996460,141.535522 354.933533,124.379753 
	C354.865417,105.807716 343.271240,94.146355 324.780304,94.068405 
	C307.791168,93.996788 290.801392,94.020447 273.812073,94.061371 
	C254.591415,94.107674 243.125519,105.579475 243.064453,124.848770 
	C243.011139,141.671463 243.012405,158.494598 243.063202,175.317307 
	C243.120407,194.264481 254.651840,205.853546 273.523041,205.936218 
	C286.847809,205.994568 300.173065,205.947540 314.497040,205.947556 
M193.521942,350.154510 
	C202.302979,343.784851 206.095047,335.108826 205.990875,324.344757 
	C205.824951,307.200348 206.039658,290.052490 205.921906,272.907288 
	C205.798141,254.885895 194.198608,243.219467 176.227890,243.081909 
	C158.749969,242.948105 141.269257,242.940903 123.791504,243.086365 
	C105.792961,243.236145 94.176208,254.909134 94.074783,272.843323 
	C93.976868,290.155273 93.996956,307.468414 94.068596,324.780609 
	C94.145058,343.259521 105.805824,354.863556 124.351921,354.933197 
	C141.497711,354.997589 158.655975,355.310638 175.783188,354.743042 
	C181.523300,354.552795 187.184677,351.987946 193.521942,350.154510 
M246.047256,339.262878 
	C251.727142,349.727844 260.528412,354.943604 272.427582,354.944855 
	C289.927002,354.946716 307.426727,355.010620 324.925751,354.928894 
	C343.156433,354.843750 354.840393,343.167358 354.928772,324.946136 
	C355.012054,307.780426 354.993652,290.613861 354.934387,273.447937 
	C354.869995,254.789703 343.368225,243.181915 324.757843,243.075073 
	C307.592316,242.976532 290.425446,242.987839 273.259735,243.070251 
	C254.694550,243.159378 243.138428,254.810135 243.066498,273.473663 
	C243.000977,290.472839 242.868225,307.475800 243.173431,324.469788 
	C243.258255,329.192963 244.794815,333.890045 246.047256,339.262878 
z"/>
<path fill="#FEFEFE" opacity="1.000000" stroke="none" 
	d="
M448.000000,206.531342 
	C446.760254,199.769180 445.601715,192.523346 444.267975,185.309891 
	C432.764923,123.096886 400.386108,74.443382 348.410706,38.785622 
	C317.938141,17.879910 283.898132,6.358490 247.303665,2.115098 
	C245.327530,1.885951 243.325058,1.883857 241.167419,1.388034 
	C309.926849,1.000000 378.853699,1.000000 448.000000,1.000000 
	C448.000000,69.354073 448.000000,137.708374 448.000000,206.531342 
z"/>
<path fill="#FEFEFE" opacity="1.000000" stroke="none" 
	d="
M241.468658,448.000000 
	C246.599442,447.086456 252.198944,446.173218 257.798340,445.259338 
	C326.928711,433.976562 379.601318,398.124542 416.303101,338.695923 
	C434.352753,309.469360 443.890656,277.367706 447.618988,243.157440 
	C448.000000,311.260712 448.000000,379.521423 448.000000,448.000000 
	C379.312592,448.000000 310.624969,448.000000 241.468658,448.000000 
z"/>
<path fill="#FEFEFE" opacity="1.000000" stroke="none" 
	d="
M206.531342,1.000000 
	C199.768616,2.239853 192.522263,3.398718 185.308197,4.732270 
	C123.089516,16.233654 74.416649,48.607052 38.786034,100.603821 
	C17.103050,132.246414 5.428917,167.601181 1.381011,205.842560 
	C1.000000,137.739456 1.000000,69.478912 1.000000,1.000000 
	C69.354073,1.000000 137.708374,1.000000 206.531342,1.000000 
z"/>
<path fill="#FEFEFE" opacity="1.000000" stroke="none" 
	d="
M1.000000,243.468658 
	C2.239697,249.897110 3.448262,256.799988 4.723950,263.690430 
	C16.242527,325.906158 48.605644,374.583191 100.604919,410.216309 
	C132.248398,431.900421 167.603317,443.567291 205.842560,447.618988 
	C137.739639,448.000000 69.479286,448.000000 1.000000,448.000000 
	C1.000000,379.979248 1.000000,311.958282 1.000000,243.468658 
z"/>
<path fill="#FDFDFD" opacity="1.000000" stroke="none" 
	d="
M202.065338,191.913116 
	C195.694199,201.961212 186.677765,206.074310 175.319504,205.982559 
	C158.507935,205.846741 141.694336,205.987473 124.881813,205.935944 
	C105.604797,205.876877 94.110748,194.427399 94.061874,175.250961 
	C94.018608,158.271957 94.000824,141.292526 94.067184,124.313652 
	C94.139610,105.784470 105.756607,94.142815 124.256447,94.067970 
	C141.401764,93.998604 158.547775,94.000534 175.693100,94.067383 
	C194.245743,94.139717 205.828476,105.712975 205.926773,124.325279 
	C206.017303,141.470398 206.233719,158.624008 205.776779,175.757416 
	C205.635361,181.059921 203.469864,186.308441 202.065338,191.913116 
z"/>
<path fill="#FDFDFD" opacity="1.000000" stroke="none" 
	d="
M313.997559,205.947556 
	C300.173065,205.947540 286.847809,205.994568 273.523041,205.936218 
	C254.651840,205.853546 243.120407,194.264481 243.063202,175.317307 
	C243.012405,158.494598 243.011139,141.671463 243.064453,124.848770 
	C243.125519,105.579475 254.591415,94.107674 273.812073,94.061371 
	C290.801392,94.020447 307.791168,93.996788 324.780304,94.068405 
	C343.271240,94.146355 354.865417,105.807716 354.933533,124.379753 
	C354.996460,141.535522 355.006470,158.691971 354.930511,175.847626 
	C354.849518,194.140289 343.289215,205.706039 324.990479,205.939133 
	C321.493225,205.983688 317.994873,205.946838 313.997559,205.947556 
z"/>
<path fill="#FDFDFD" opacity="1.000000" stroke="none" 
	d="
M193.201996,350.331512 
	C187.184677,351.987946 181.523300,354.552795 175.783188,354.743042 
	C158.655975,355.310638 141.497711,354.997589 124.351921,354.933197 
	C105.805824,354.863556 94.145058,343.259521 94.068596,324.780609 
	C93.996956,307.468414 93.976868,290.155273 94.074783,272.843323 
	C94.176208,254.909134 105.792961,243.236145 123.791504,243.086365 
	C141.269257,242.940903 158.749969,242.948105 176.227890,243.081909 
	C194.198608,243.219467 205.798141,254.885895 205.921906,272.907288 
	C206.039658,290.052490 205.824951,307.200348 205.990875,324.344757 
	C206.095047,335.108826 202.302979,343.784851 193.201996,350.331512 
z"/>
<path fill="#FDFDFD" opacity="1.000000" stroke="none" 
	d="
M245.856293,338.931000 
	C244.794815,333.890045 243.258255,329.192963 243.173431,324.469788 
	C242.868225,307.475800 243.000977,290.472839 243.066498,273.473663 
	C243.138428,254.810135 254.694550,243.159378 273.259735,243.070251 
	C290.425446,242.987839 307.592316,242.976532 324.757843,243.075073 
	C343.368225,243.181915 354.869995,254.789703 354.934387,273.447937 
	C354.993652,290.613861 355.012054,307.780426 354.928772,324.946136 
	C354.840393,343.167358 343.156433,354.843750 324.925751,354.928894 
	C307.426727,355.010620 289.927002,354.946716 272.427582,354.944855 
	C260.528412,354.943604 251.727142,349.727844 245.856293,338.931000 
z"/>
</svg>